<?xml version="1.0" encoding="UTF-8"?>
<svg width="288px" height="198px" viewBox="0 0 288 198" version="1.1" xmlns="http://www.w3.org/2000/svg" xmlns:xlink="http://www.w3.org/1999/xlink">
    <!-- Generator: Sketch 61.2 (89653) - https://sketch.com -->
    <title>Small</title>
    <desc>Created with Sketch.</desc>
    <g id="Page-1" stroke="none" stroke-width="1" fill="none" fill-rule="evenodd">
        <g id="Pig" transform="translate(6.000000, 5.000000)" fill-rule="nonzero">
            <path d="M36.186,187.14775 C39.7935,187.14775 42.15625,187.14775 42.15625,187.14775 M0.00375,187.14775 C0.00375,187.14775 24.5575,187.14775 36.186,187.14775 M197.8475,187.14775 C210.8735,187.14775 219.408,187.14775 219.408,187.14775 M67.1975,187.14775 C67.1975,187.14775 155.8575,187.14775 197.8475,187.14775 M262.165,187.14775 C263.90375,187.14775 265.04125,187.14775 265.04125,187.14775 M244.73525,187.14775 C244.73525,187.14775 256.562,187.14775 262.165,187.14775" id="Floor" stroke="#90CDF4" stroke-width="10.23425" fill-opacity="0" fill="#000000" stroke-linecap="round" stroke-linejoin="round"></path>
            <g id="Body" transform="translate(8.750000, 0.000000)">
                <path d="M52.2725,156.38325 C52.2725,156.38325 56.20825,177.87225 56.20825,177.87225 C57.09875,182.731 61.33675,186.25725 66.28,186.25725 C66.28,186.25725 70.1643428,185.356824 77.9330284,183.555972 C76.3309913,169.039536 75.5299728,161.781317 75.5299728,161.781317 C75.5299728,161.781317 52.2725,156.38325 52.2725,156.38325 Z" id="Front-Leg-2" fill="#BEE3F8"></path>
                <path d="M56.8745,160.2215 C56.8745,160.2215 59.98475,177.18 59.98475,177.18 C60.5405,180.21225 63.18925,182.419 66.27675,182.419 C66.27675,182.419 70.85468,182.419 80.0105401,182.419 C77.3980134,171.260667 76.09175,165.6815 76.09175,165.6815 C76.09175,165.6815 56.8745,160.2215 56.8745,160.2215 Z" id="Front-Leg" stroke="#4299E1" stroke-width="7.6765" fill-opacity="0" fill="#000000"></path>
                <path d="M126.47975,164.997086 C126.47975,164.997086 125.81025,177.87225 125.81025,177.87225 C126.70075,182.731 130.93875,186.25725 135.87875,186.25725 C135.87875,186.25725 139.997847,184.977833 148.236041,182.419 C147.08393,170.804391 146.507875,164.997086 146.507875,164.997086 C146.507875,164.997086 126.47975,164.997086 126.47975,164.997086 Z" id="Back-Leg" fill="#BEE3F8"></path>
                <path d="M126.47975,166.2215 C126.47975,166.2215 129.58675,177.18 129.58675,177.18 C130.1425,180.21225 132.78475,182.419 135.87875,182.419 C135.87875,182.419 139.583833,182.419 146.994,182.419 C146.669917,172.570913 146.507875,167.646869 146.507875,167.646869 C146.507875,167.646869 126.47975,166.2215 126.47975,166.2215 Z" id="Back-Leg-2" stroke="#4299E1" stroke-width="7.6765" fill-opacity="0" fill="#000000"></path>
                <path d="M38.58675,74.34025 C38.58675,79.771 42.94825,84.178 48.32375,84.178 C53.696,84.178 58.05425,79.771 58.05425,74.34025 C58.05425,68.90625 53.696,64.5025 48.32375,64.5025 C42.94825,64.5025 38.58675,68.90625 38.58675,74.34025 Z" id="Eye" fill="#4299E1"></path>
                <g id="Outer-Shell" transform="translate(0.176609, 0.921096)" fill="#000000" fill-opacity="0" stroke="#4299E1" stroke-width="10.23425">
                    <path d="M56.8801145,28.7390981 C33.672674,39.3047891 22.5228982,48.5766045 15.3708905,76.8739038 C15.3708905,76.8739038 14.4088905,80.8551538 14.4088905,80.8551538 C14.4088905,80.8551538 10.3203905,80.7901538 10.3203905,80.7901538 C9.68014055,80.7804038 9.03989055,80.8259038 8.39639055,80.9396538 C2.88114055,81.9276538 -0.823859451,87.2706538 0.157640549,92.8866538 C0.157640549,92.8866538 6.49514055,129.189154 6.49514055,129.189154 C7.47339055,134.792154 12.7383905,138.513404 18.2438905,137.535154 C19.4301405,137.327154 20.5448905,136.914404 21.5621405,136.316404 C21.5621405,136.316404 25.4458905,134.041404 25.4458905,134.041404 C25.4458905,134.041404 28.1986405,137.609904 28.1986405,137.609904 C39.0698905,151.714904 54.7998905,161.269904 72.3661405,164.178654 C72.3661405,164.178654 75.9151405,164.760404 75.9151405,164.760404 C75.9151405,164.760404 79.0871405,182.043904 79.0871405,182.043904 C79.5323905,184.471654 81.6513905,186.236404 84.1213905,186.236404 C84.1213905,186.236404 105.363391,186.236404 105.363391,186.236404 C107.820391,186.236404 109.926391,184.494404 110.391141,182.086154 C110.391141,182.086154 113.650891,165.117904 113.650891,165.117904 C113.650891,165.117904 145.816141,165.117904 145.816141,165.117904 C145.816141,165.117904 148.923141,182.043904 148.923141,182.043904 C149.365141,184.471654 151.487391,186.236404 153.954141,186.236404 C153.954141,186.236404 175.199391,186.236404 175.199391,186.236404 C177.649891,186.236404 179.759141,184.494404 180.220641,182.086154 C180.220641,182.086154 184.289641,160.909154 184.289641,160.909154 C184.289641,160.909154 186.844141,159.859404 186.844141,159.859404 C213.146391,149.001154 230.706141,123.085654 230.706141,93.8746538 C230.706141,80.5236538 226.837775,67.2985165 220.068025,56.1835165" id="Path"></path>
                    <path d="M233.286641,100.345404 C233.286641,100.345404 258.090641,99.9814038 258.090641,99.9814038 C262.842141,99.9814038 266.690141,96.0781538 266.690141,91.2844038 C266.690141,86.4776538 263.667641,82.5874038 258.090641,82.5874038 C254.372641,82.5874038 251.746641,84.1571538 250.196391,87.2869038" id="Path" stroke-linecap="round" stroke-linejoin="round"></path>
                    <path d="M60.8253905,40.0904038 C60.8253905,32.4009038 58.2903905,28.5139038 53.2171405,25.9496538 C34.6173905,19.9956538 32.9273905,14.4544038 48.1438905,9.32590383 C70.9718905,1.63315383 81.1151405,-3.49209617 89.9908905,2.87465383 C98.8731405,9.24465383 92.5291405,18.2569038 102.672391,25.9496538 C109.731391,31.2991538 133.079932,28.1377566 157.200891,29.8366538 C184.830305,30.7695798 213.035756,41.9511662 221.115391,58.0369038" id="Path" stroke-linecap="round" stroke-linejoin="round"></path>
                </g>
            </g>
        </g>
    </g>
</svg>