<?xml version="1.0" standalone="no"?>
<!DOCTYPE svg PUBLIC "-//W3C//DTD SVG 20010904//EN"
 "http://www.w3.org/TR/2001/REC-SVG-20010904/DTD/svg10.dtd">
<svg version="1.0" xmlns="http://www.w3.org/2000/svg"
 width="700.000000pt" height="700.000000pt" viewBox="0 0 700.000000 700.000000"
 preserveAspectRatio="xMidYMid meet">
<metadata>
Created by potrace 1.11, written by Peter Selinger 2001-2013
</metadata>
<g transform="translate(0.000000,700.000000) scale(0.100000,-0.100000)"
fill="#000000" stroke="none">
<path d="M2247 5843 c-2 -1 -21 -5 -43 -8 -97 -15 -395 -107 -719 -225 -144
-52 -255 -135 -291 -216 -54 -127 9 -276 153 -361 l44 -25 -78 -47 c-121 -72
-190 -126 -293 -230 -169 -170 -286 -381 -370 -667 l-21 -72 -41 -5 c-64 -9
-163 -64 -214 -120 -83 -91 -116 -184 -109 -309 2 -43 6 -81 8 -86 3 -4 8 -23
11 -42 3 -19 8 -48 11 -65 3 -16 12 -66 20 -110 8 -44 16 -91 19 -105 2 -14 7
-43 11 -65 13 -70 15 -79 20 -110 3 -16 7 -43 10 -60 3 -16 8 -46 11 -65 16
-103 46 -214 68 -257 32 -63 110 -141 172 -172 96 -48 220 -60 309 -31 l36 12
97 -99 c54 -54 115 -113 137 -131 75 -61 214 -153 312 -205 l98 -52 30 -160
c17 -88 36 -171 42 -185 8 -20 6 -32 -8 -60 -52 -99 -5 -224 97 -257 45 -16
3737 -15 3779 1 97 35 143 132 108 231 -18 52 -46 81 -100 101 -39 15 -92 17
-434 17 -366 0 -389 1 -389 18 0 10 6 49 14 86 17 77 23 112 32 163 6 33 12
38 102 82 101 49 234 133 312 196 25 20 53 44 64 52 59 48 189 188 252 273
124 166 205 318 266 505 l34 103 355 -1 c268 0 366 3 404 14 197 52 317 218
318 435 0 91 -3 112 -26 178 -33 97 -105 187 -188 235 -110 65 -266 75 -374
25 -105 -49 -189 -151 -200 -241 -12 -96 59 -185 154 -194 69 -6 114 12 161
65 32 36 44 44 63 39 57 -14 72 -157 18 -185 -9 -5 -154 -9 -324 -9 l-307 -1
-1 112 c0 62 -3 126 -5 142 -2 17 -7 50 -10 75 -4 25 -8 52 -9 60 -26 204
-183 572 -311 730 -120 147 -250 261 -399 346 -109 63 -169 89 -340 149 -54
19 -239 64 -295 71 -25 3 -47 8 -50 9 -3 2 -37 6 -75 10 -39 3 -81 8 -95 10
-92 15 -399 27 -810 31 -206 2 -386 5 -400 7 -14 2 -49 7 -78 12 -87 12 -134
74 -158 212 -46 258 -239 421 -507 427 -43 1 -79 1 -80 -1z m157 -378 c51 -24
69 -62 91 -184 19 -111 75 -213 162 -298 91 -88 152 -114 358 -148 22 -4 209
-8 415 -10 327 -3 600 -10 719 -20 268 -22 406 -49 586 -112 303 -107 490
-270 629 -549 96 -192 137 -362 141 -589 6 -259 -29 -413 -145 -650 -156 -317
-408 -544 -766 -690 -59 -24 -111 -50 -115 -57 -4 -7 -14 -49 -23 -93 -8 -44
-17 -89 -20 -100 -2 -11 -16 -85 -31 -165 l-28 -145 -189 0 c-181 0 -189 1
-193 20 -7 33 -25 129 -31 161 -3 16 -7 36 -9 44 -2 8 -7 31 -10 50 -15 95
-27 154 -34 173 l-9 22 -507 0 c-435 -1 -508 -3 -515 -15 -6 -12 -41 -184 -75
-370 -11 -59 -17 -80 -23 -81 -4 -1 -89 -2 -189 -3 l-182 -2 -10 45 c-5 25
-24 125 -42 221 -17 96 -35 179 -39 183 -7 9 -12 9 -155 32 -407 65 -709 240
-958 555 -33 41 -73 92 -90 114 -17 21 -36 44 -42 52 -8 10 -34 -1 -130 -56
-83 -49 -126 -68 -140 -64 -28 9 -33 15 -39 49 -14 70 -48 262 -52 290 -3 17
-11 64 -19 105 -8 41 -17 89 -20 105 -2 17 -9 55 -15 85 -5 30 -12 69 -14 85
-3 17 -10 54 -16 83 -10 55 -3 85 22 94 7 3 68 4 136 3 l122 -2 11 41 c6 22
13 49 15 60 19 102 75 286 120 399 104 261 252 418 537 572 48 26 91 44 94 41
4 -4 8 -17 10 -29 7 -41 53 -98 96 -118 73 -33 146 -22 201 29 44 41 58 84 55
171 -7 225 -116 381 -323 461 -66 26 -69 29 -46 38 14 5 129 44 255 86 314
104 391 118 469 81z m832 -3708 c9 -9 43 -140 38 -148 -2 -4 -32 -7 -65 -7
l-61 2 7 45 c3 25 11 62 16 82 8 31 13 36 35 33 14 -1 28 -4 30 -7z"/>
<path d="M1514 4180 c-102 -33 -184 -120 -202 -214 -37 -189 87 -354 278 -369
158 -13 313 132 313 291 0 209 -196 355 -389 292z"/>
<path d="M162 1592 c-20 -7 -51 -27 -69 -44 -88 -85 -62 -238 49 -288 36 -16
86 -17 581 -18 498 0 545 1 583 18 42 18 86 66 100 110 27 87 -29 193 -116
222 -52 17 -1078 18 -1128 0z"/>
<path d="M6086 1598 c-155 -22 -214 -204 -99 -309 15 -15 42 -31 59 -36 18 -6
147 -11 310 -11 297 0 308 2 362 52 72 65 71 195 -2 259 -53 47 -67 49 -331
51 -139 0 -273 -2 -299 -6z"/>
</g>
</svg>
